STARTFONT 2.1
FONT -DEC-Terminal-Medium-R-Narrow--25-180-100-100-C-90-iso8859-5
SIZE 18 100 100
FONTBOUNDINGBOX 9 25 0 -5

STARTPROPERTIES 24
FOUNDRY "Monotype"
FAMILY_NAME "VT"
WEIGHT_NAME "Regular"
SLANT "R"
SETWIDTH_NAME "Narrow"
ADD_STYLE_NAME ""
PIXEL_SIZE 25
POINT_SIZE 180
RESOLUTION_X 100
RESOLUTION_Y 100
SPACING "C"
AVERAGE_WIDTH 90
CHARSET_REGISTRY "iso8859"
CHARSET_ENCODING "5"
FACE_NAME "VT Narrow ISO Latin Cyrillic"
_DEC_DEVICE_FONTNAMES "PS=vt-narrow-isolatincyrillic"
COPYRIGHT "Copyright (c) 1993 Monotype Typography Ltd."
CAP_HEIGHT 14
X_HEIGHT 10
WEIGHT 10
QUAD_WIDTH 9
DEFAULT_CHAR 160
FONT_DESCENT 5
FONT_ASCENT 20
ENDPROPERTIES

CHARS 191

STARTCHAR space
ENCODING 32
SWIDTH 361 0
DWIDTH 9 0
BBX 9 25 0 -5
BITMAP
0000
0000
0000
0000
0000
0000
0000
0000
0000
0000
0000
0000
0000
0000
0000
0000
0000
0000
0000
0000
0000
0000
0000
0000
0000
ENDCHAR

STARTCHAR exclam
ENCODING 33
SWIDTH 361 0
DWIDTH 9 0
BBX 9 25 0 -5
BITMAP
0000
0000
0000
0000
0000
0800
0800
0800
0800
0800
0800
0800
0800
0800
0800
0000
0000
0800
1C00
0800
0000
0000
0000
0000
0000
ENDCHAR

STARTCHAR quotedbl
ENCODING 34
SWIDTH 361 0
DWIDTH 9 0
BBX 9 25 0 -5
BITMAP
0000
0000
0000
0000
0000
2400
2400
2400
2400
0000
0000
0000
0000
0000
0000
0000
0000
0000
0000
0000
0000
0000
0000
0000
0000
ENDCHAR

STARTCHAR numbersign
ENCODING 35
SWIDTH 361 0
DWIDTH 9 0
BBX 9 25 0 -5
BITMAP
0000
0000
0000
0000
0000
2200
2200
2200
2200
2200
7F00
2200
2200
2200
7F00
2200
2200
2200
2200
2200
2200
0000
0000
0000
0000
ENDCHAR

STARTCHAR dollar
ENCODING 36
SWIDTH 361 0
DWIDTH 9 0
BBX 9 25 0 -5
BITMAP
0000
0000
0000
0400
0400
1F00
2100
2100
2000
2000
1000
1000
0C00
0200
0200
0100
0100
2100
2100
3E00
0400
0400
0400
0000
0000
ENDCHAR

STARTCHAR percent
ENCODING 37
SWIDTH 361 0
DWIDTH 9 0
BBX 9 25 0 -5
BITMAP
0000
0000
0000
0000
0000
3000
4800
4800
4800
4900
3200
0400
0800
1000
2600
4900
0900
0900
0900
0600
0000
0000
0000
0000
0000
ENDCHAR

STARTCHAR ampersand
ENCODING 38
SWIDTH 361 0
DWIDTH 9 0
BBX 9 25 0 -5
BITMAP
0000
0000
0000
0000
0000
0700
0900
0900
0800
0800
0800
0800
1900
2500
2200
2200
2200
2200
2200
1D00
0000
0000
0000
0000
0000
ENDCHAR

STARTCHAR quoteright
ENCODING 39
SWIDTH 361 0
DWIDTH 9 0
BBX 9 25 0 -5
BITMAP
0000
0000
0000
0000
0000
0000
0E00
0C00
1800
1000
1000
0000
0000
0000
0000
0000
0000
0000
0000
0000
0000
0000
0000
0000
0000
ENDCHAR

STARTCHAR parenleft
ENCODING 40
SWIDTH 361 0
DWIDTH 9 0
BBX 9 25 0 -5
BITMAP
0000
0000
0000
0000
0600
0800
0800
1000
1000
1000
1000
1000
1000
1000
1000
1000
1000
1000
0800
0800
0600
0000
0000
0000
0000
ENDCHAR

STARTCHAR parenright
ENCODING 41
SWIDTH 361 0
DWIDTH 9 0
BBX 9 25 0 -5
BITMAP
0000
0000
0000
0000
3000
0800
0800
0400
0400
0400
0400
0400
0400
0400
0400
0400
0400
0400
0800
0800
3000
0000
0000
0000
0000
ENDCHAR

STARTCHAR asterisk
ENCODING 42
SWIDTH 361 0
DWIDTH 9 0
BBX 9 25 0 -5
BITMAP
0000
0000
0000
0000
0000
0000
0000
0000
0800
0800
6B00
1C00
0800
1C00
2200
2200
4100
0000
0000
0000
0000
0000
0000
0000
0000
ENDCHAR

STARTCHAR plus
ENCODING 43
SWIDTH 361 0
DWIDTH 9 0
BBX 9 25 0 -5
BITMAP
0000
0000
0000
0000
0000
0000
0000
0000
0000
0800
0800
0800
0800
7F00
0800
0800
0800
0800
0000
0000
0000
0000
0000
0000
0000
ENDCHAR

STARTCHAR comma
ENCODING 44
SWIDTH 361 0
DWIDTH 9 0
BBX 9 25 0 -5
BITMAP
0000
0000
0000
0000
0000
0000
0000
0000
0000
0000
0000
0000
0000
0000
0000
0000
0000
0000
0E00
0C00
1800
1000
1000
0000
0000
ENDCHAR

STARTCHAR minus
ENCODING 45
SWIDTH 361 0
DWIDTH 9 0
BBX 9 25 0 -5
BITMAP
0000
0000
0000
0000
0000
0000
0000
0000
0000
0000
0000
0000
7F00
0000
0000
0000
0000
0000
0000
0000
0000
0000
0000
0000
0000
ENDCHAR

STARTCHAR period
ENCODING 46
SWIDTH 361 0
DWIDTH 9 0
BBX 9 25 0 -5
BITMAP
0000
0000
0000
0000
0000
0000
0000
0000
0000
0000
0000
0000
0000
0000
0000
0000
0000
0800
1C00
0800
0000
0000
0000
0000
0000
ENDCHAR

STARTCHAR slash
ENCODING 47
SWIDTH 361 0
DWIDTH 9 0
BBX 9 25 0 -5
BITMAP
0000
0000
0000
0000
0200
0200
0200
0400
0400
0400
0400
0800
0800
0800
1000
1000
1000
2000
2000
2000
2000
0000
0000
0000
0000
ENDCHAR

STARTCHAR zero
ENCODING 48
SWIDTH 361 0
DWIDTH 9 0
BBX 9 25 0 -5
BITMAP
0000
0000
0000
0000
0000
1800
2400
2400
4200
4200
4200
4200
4200
4200
4200
4200
4200
2400
2400
1800
0000
0000
0000
0000
0000
ENDCHAR

STARTCHAR one
ENCODING 49
SWIDTH 361 0
DWIDTH 9 0
BBX 9 25 0 -5
BITMAP
0000
0000
0000
0000
0000
0800
1800
2800
4800
0800
0800
0800
0800
0800
0800
0800
0800
0800
0800
7F00
0000
0000
0000
0000
0000
ENDCHAR

STARTCHAR two
ENCODING 50
SWIDTH 361 0
DWIDTH 9 0
BBX 9 25 0 -5
BITMAP
0000
0000
0000
0000
0000
3C00
4200
4200
4200
0200
0400
0400
0800
1000
1000
2000
2000
4200
4200
7E00
0000
0000
0000
0000
0000
ENDCHAR

STARTCHAR three
ENCODING 51
SWIDTH 361 0
DWIDTH 9 0
BBX 9 25 0 -5
BITMAP
0000
0000
0000
0000
0000
3C00
4200
0200
0200
0200
0200
0200
1C00
0200
0200
0200
0200
4200
4200
3C00
0000
0000
0000
0000
0000
ENDCHAR

STARTCHAR four
ENCODING 52
SWIDTH 361 0
DWIDTH 9 0
BBX 9 25 0 -5
BITMAP
0000
0000
0000
0000
0000
0200
0600
0A00
0A00
1200
1200
2200
2200
4200
7F00
0200
0200
0200
0200
0200
0000
0000
0000
0000
0000
ENDCHAR

STARTCHAR five
ENCODING 53
SWIDTH 361 0
DWIDTH 9 0
BBX 9 25 0 -5
BITMAP
0000
0000
0000
0000
0000
7E00
4000
4000
4000
4000
4000
7C00
4200
0200
0200
0200
0200
0200
4200
3C00
0000
0000
0000
0000
0000
ENDCHAR

STARTCHAR six
ENCODING 54
SWIDTH 361 0
DWIDTH 9 0
BBX 9 25 0 -5
BITMAP
0000
0000
0000
0000
0000
1C00
2000
2000
4000
4000
4000
7C00
4200
4200
4200
4200
4200
4200
4200
3C00
0000
0000
0000
0000
0000
ENDCHAR

STARTCHAR seven
ENCODING 55
SWIDTH 361 0
DWIDTH 9 0
BBX 9 25 0 -5
BITMAP
0000
0000
0000
0000
0000
7E00
4200
4200
0400
0400
0400
0800
0800
0800
1000
1000
1000
2000
2000
2000
0000
0000
0000
0000
0000
ENDCHAR

STARTCHAR eight
ENCODING 56
SWIDTH 361 0
DWIDTH 9 0
BBX 9 25 0 -5
BITMAP
0000
0000
0000
0000
0000
3C00
4200
4200
4200
4200
4200
4200
3C00
4200
4200
4200
4200
4200
4200
3C00
0000
0000
0000
0000
0000
ENDCHAR

STARTCHAR nine
ENCODING 57
SWIDTH 361 0
DWIDTH 9 0
BBX 9 25 0 -5
BITMAP
0000
0000
0000
0000
0000
1E00
2100
2100
2100
2100
2100
2100
2100
1F00
0100
0100
0100
0200
0200
1C00
0000
0000
0000
0000
0000
ENDCHAR

STARTCHAR colon
ENCODING 58
SWIDTH 361 0
DWIDTH 9 0
BBX 9 25 0 -5
BITMAP
0000
0000
0000
0000
0000
0000
0000
0000
0000
0000
0800
1C00
0800
0000
0000
0000
0000
0800
1C00
0800
0000
0000
0000
0000
0000
ENDCHAR

STARTCHAR semicolon
ENCODING 59
SWIDTH 361 0
DWIDTH 9 0
BBX 9 25 0 -5
BITMAP
0000
0000
0000
0000
0000
0000
0000
0000
0000
0000
0800
1C00
0800
0000
0000
0000
0000
1C00
1800
3000
2000
2000
0000
0000
0000
ENDCHAR

STARTCHAR less
ENCODING 60
SWIDTH 361 0
DWIDTH 9 0
BBX 9 25 0 -5
BITMAP
0000
0000
0000
0000
0000
0000
0000
0000
0200
0400
0800
1000
2000
4000
2000
1000
0800
0400
0200
0000
0000
0000
0000
0000
0000
ENDCHAR

STARTCHAR equal
ENCODING 61
SWIDTH 361 0
DWIDTH 9 0
BBX 9 25 0 -5
BITMAP
0000
0000
0000
0000
0000
0000
0000
0000
0000
0000
0000
7F00
0000
0000
7F00
0000
0000
0000
0000
0000
0000
0000
0000
0000
0000
ENDCHAR

STARTCHAR greater
ENCODING 62
SWIDTH 361 0
DWIDTH 9 0
BBX 9 25 0 -5
BITMAP
0000
0000
0000
0000
0000
0000
0000
0000
2000
1000
0800
0400
0200
0100
0200
0400
0800
1000
2000
0000
0000
0000
0000
0000
0000
ENDCHAR

STARTCHAR question
ENCODING 63
SWIDTH 361 0
DWIDTH 9 0
BBX 9 25 0 -5
BITMAP
0000
0000
0000
0000
0000
3C00
4200
4200
0200
0200
0200
0400
0800
0800
0800
0000
0000
0800
1C00
0800
0000
0000
0000
0000
0000
ENDCHAR

STARTCHAR at
ENCODING 64
SWIDTH 361 0
DWIDTH 9 0
BBX 9 25 0 -5
BITMAP
0000
0000
0000
0000
0000
1C00
2200
4200
4200
4200
4E00
5200
5200
5200
5200
5200
4F80
4000
4000
4000
2100
1E00
0000
0000
0000
ENDCHAR

STARTCHAR A
ENCODING 65
SWIDTH 361 0
DWIDTH 9 0
BBX 9 25 0 -5
BITMAP
0000
0000
0000
0000
0000
1800
1800
1800
2400
2400
2400
4200
4200
4200
7E00
4200
4200
4200
4200
C300
0000
0000
0000
0000
0000
ENDCHAR

STARTCHAR B
ENCODING 66
SWIDTH 361 0
DWIDTH 9 0
BBX 9 25 0 -5
BITMAP
0000
0000
0000
0000
0000
7E00
2100
2100
2100
2100
2100
2100
3E00
2100
2100
2100
2100
2100
2100
7E00
0000
0000
0000
0000
0000
ENDCHAR

STARTCHAR C
ENCODING 67
SWIDTH 361 0
DWIDTH 9 0
BBX 9 25 0 -5
BITMAP
0000
0000
0000
0000
0000
1D00
2300
2100
2000
2000
2000
2000
2000
2000
2000
2000
2000
2100
2100
1E00
0000
0000
0000
0000
0000
ENDCHAR

STARTCHAR D
ENCODING 68
SWIDTH 361 0
DWIDTH 9 0
BBX 9 25 0 -5
BITMAP
0000
0000
0000
0000
0000
7E00
2100
2100
2100
2100
2100
2100
2100
2100
2100
2100
2100
2100
2100
7E00
0000
0000
0000
0000
0000
ENDCHAR

STARTCHAR E
ENCODING 69
SWIDTH 361 0
DWIDTH 9 0
BBX 9 25 0 -5
BITMAP
0000
0000
0000
0000
0000
7F00
2100
2100
2000
2000
2000
2200
3E00
2200
2000
2000
2000
2100
2100
7F00
0000
0000
0000
0000
0000
ENDCHAR

STARTCHAR F
ENCODING 70
SWIDTH 361 0
DWIDTH 9 0
BBX 9 25 0 -5
BITMAP
0000
0000
0000
0000
0000
7F00
2100
2100
2000
2000
2000
2200
3E00
2200
2000
2000
2000
2000
2000
7000
0000
0000
0000
0000
0000
ENDCHAR

STARTCHAR G
ENCODING 71
SWIDTH 361 0
DWIDTH 9 0
BBX 9 25 0 -5
BITMAP
0000
0000
0000
0000
0000
3A00
4600
4200
4000
4000
4000
4000
4000
4700
4200
4200
4200
4200
4200
3E00
0000
0000
0000
0000
0000
ENDCHAR

STARTCHAR H
ENCODING 72
SWIDTH 361 0
DWIDTH 9 0
BBX 9 25 0 -5
BITMAP
0000
0000
0000
0000
0000
E700
4200
4200
4200
4200
4200
4200
7E00
4200
4200
4200
4200
4200
4200
E700
0000
0000
0000
0000
0000
ENDCHAR

STARTCHAR I
ENCODING 73
SWIDTH 361 0
DWIDTH 9 0
BBX 9 25 0 -5
BITMAP
0000
0000
0000
0000
0000
3E00
0800
0800
0800
0800
0800
0800
0800
0800
0800
0800
0800
0800
0800
3E00
0000
0000
0000
0000
0000
ENDCHAR

STARTCHAR J
ENCODING 74
SWIDTH 361 0
DWIDTH 9 0
BBX 9 25 0 -5
BITMAP
0000
0000
0000
0000
0000
0F00
0200
0200
0200
0200
0200
0200
0200
0200
0200
4200
4200
4200
4200
3C00
0000
0000
0000
0000
0000
ENDCHAR

STARTCHAR K
ENCODING 75
SWIDTH 361 0
DWIDTH 9 0
BBX 9 25 0 -5
BITMAP
0000
0000
0000
0000
0000
7300
2200
2200
2400
2400
2800
3000
2800
2800
2400
2400
2200
2200
2200
7300
0000
0000
0000
0000
0000
ENDCHAR

STARTCHAR L
ENCODING 76
SWIDTH 361 0
DWIDTH 9 0
BBX 9 25 0 -5
BITMAP
0000
0000
0000
0000
0000
7000
2000
2000
2000
2000
2000
2000
2000
2000
2000
2000
2000
2000
2100
7F00
0000
0000
0000
0000
0000
ENDCHAR

STARTCHAR M
ENCODING 77
SWIDTH 361 0
DWIDTH 9 0
BBX 9 25 0 -5
BITMAP
0000
0000
0000
0000
0000
C300
4200
4200
6600
6600
5A00
5A00
5A00
4200
4200
4200
4200
4200
4200
E700
0000
0000
0000
0000
0000
ENDCHAR

STARTCHAR N
ENCODING 78
SWIDTH 361 0
DWIDTH 9 0
BBX 9 25 0 -5
BITMAP
0000
0000
0000
0000
0000
C700
4200
6200
6200
5200
5200
5200
5200
4A00
4A00
4A00
4600
4600
4200
E200
0000
0000
0000
0000
0000
ENDCHAR

STARTCHAR O
ENCODING 79
SWIDTH 361 0
DWIDTH 9 0
BBX 9 25 0 -5
BITMAP
0000
0000
0000
0000
0000
3C00
4200
4200
4200
4200
4200
4200
4200
4200
4200
4200
4200
4200
4200
3C00
0000
0000
0000
0000
0000
ENDCHAR

STARTCHAR P
ENCODING 80
SWIDTH 361 0
DWIDTH 9 0
BBX 9 25 0 -5
BITMAP
0000
0000
0000
0000
0000
7E00
2100
2100
2100
2100
2100
2100
3E00
2000
2000
2000
2000
2000
2000
7800
0000
0000
0000
0000
0000
ENDCHAR

STARTCHAR Q
ENCODING 81
SWIDTH 361 0
DWIDTH 9 0
BBX 9 25 0 -5
BITMAP
0000
0000
0000
0000
0000
1E00
2100
2100
2100
2100
2100
2100
2100
2100
2100
2100
2100
2100
2100
1E00
1000
1900
2600
0000
0000
ENDCHAR

STARTCHAR R
ENCODING 82
SWIDTH 361 0
DWIDTH 9 0
BBX 9 25 0 -5
BITMAP
0000
0000
0000
0000
0000
7E00
2100
2100
2100
2100
2100
2100
3E00
2200
2200
2200
2100
2100
2100
7180
0000
0000
0000
0000
0000
ENDCHAR

STARTCHAR S
ENCODING 83
SWIDTH 361 0
DWIDTH 9 0
BBX 9 25 0 -5
BITMAP
0000
0000
0000
0000
0000
3E00
4200
4200
4000
4000
4000
4000
3C00
0200
0200
0200
0200
4200
4200
7C00
0000
0000
0000
0000
0000
ENDCHAR

STARTCHAR T
ENCODING 84
SWIDTH 361 0
DWIDTH 9 0
BBX 9 25 0 -5
BITMAP
0000
0000
0000
0000
0000
FF80
8880
8880
0800
0800
0800
0800
0800
0800
0800
0800
0800
0800
0800
3E00
0000
0000
0000
0000
0000
ENDCHAR

STARTCHAR U
ENCODING 85
SWIDTH 361 0
DWIDTH 9 0
BBX 9 25 0 -5
BITMAP
0000
0000
0000
0000
0000
E700
4200
4200
4200
4200
4200
4200
4200
4200
4200
4200
4200
4200
4200
3C00
0000
0000
0000
0000
0000
ENDCHAR

STARTCHAR V
ENCODING 86
SWIDTH 361 0
DWIDTH 9 0
BBX 9 25 0 -5
BITMAP
0000
0000
0000
0000
0000
C300
4200
4200
4200
4200
4200
2400
2400
2400
2400
2400
2400
1800
1800
1800
0000
0000
0000
0000
0000
ENDCHAR

STARTCHAR W
ENCODING 87
SWIDTH 361 0
DWIDTH 9 0
BBX 9 25 0 -5
BITMAP
0000
0000
0000
0000
0000
E380
4100
4100
4900
4900
4900
4900
5500
5500
5500
5500
2200
2200
2200
2200
0000
0000
0000
0000
0000
ENDCHAR

STARTCHAR X
ENCODING 88
SWIDTH 361 0
DWIDTH 9 0
BBX 9 25 0 -5
BITMAP
0000
0000
0000
0000
0000
C300
4200
4200
2400
2400
2400
1800
1800
2400
2400
2400
4200
4200
4200
C300
0000
0000
0000
0000
0000
ENDCHAR

STARTCHAR Y
ENCODING 89
SWIDTH 361 0
DWIDTH 9 0
BBX 9 25 0 -5
BITMAP
0000
0000
0000
0000
0000
7700
2200
2200
2200
2200
2200
1400
1400
0800
0800
0800
0800
0800
0800
3E00
0000
0000
0000
0000
0000
ENDCHAR

STARTCHAR Z
ENCODING 90
SWIDTH 361 0
DWIDTH 9 0
BBX 9 25 0 -5
BITMAP
0000
0000
0000
0000
0000
7E00
4200
4200
0400
0400
0800
0800
1000
1000
1000
2000
2000
4200
4200
7E00
0000
0000
0000
0000
0000
ENDCHAR

STARTCHAR bracketleft
ENCODING 91
SWIDTH 361 0
DWIDTH 9 0
BBX 9 25 0 -5
BITMAP
0000
0000
0000
0000
1E00
1000
1000
1000
1000
1000
1000
1000
1000
1000
1000
1000
1000
1000
1000
1000
1E00
0000
0000
0000
0000
ENDCHAR

STARTCHAR backslash
ENCODING 92
SWIDTH 361 0
DWIDTH 9 0
BBX 9 25 0 -5
BITMAP
0000
0000
0000
0000
2000
2000
2000
1000
1000
1000
1000
0800
0800
0800
0400
0400
0400
0200
0200
0200
0200
0000
0000
0000
0000
ENDCHAR

STARTCHAR bracketright
ENCODING 93
SWIDTH 361 0
DWIDTH 9 0
BBX 9 25 0 -5
BITMAP
0000
0000
0000
0000
3C00
0400
0400
0400
0400
0400
0400
0400
0400
0400
0400
0400
0400
0400
0400
0400
3C00
0000
0000
0000
0000
ENDCHAR

STARTCHAR asciicircum
ENCODING 94
SWIDTH 361 0
DWIDTH 9 0
BBX 9 25 0 -5
BITMAP
0000
0000
0000
0000
0000
0000
0000
0000
0000
0000
1800
2400
4200
0000
0000
0000
0000
0000
0000
0000
0000
0000
0000
0000
0000
ENDCHAR

STARTCHAR underscore
ENCODING 95
SWIDTH 361 0
DWIDTH 9 0
BBX 9 25 0 -5
BITMAP
0000
0000
0000
0000
0000
0000
0000
0000
0000
0000
0000
0000
0000
0000
0000
0000
0000
0000
0000
FF80
0000
0000
0000
0000
0000
ENDCHAR

STARTCHAR quoteleft
ENCODING 96
SWIDTH 361 0
DWIDTH 9 0
BBX 9 25 0 -5
BITMAP
0000
0000
0000
0000
0000
1C00
0C00
0400
0600
0200
0000
0000
0000
0000
0000
0000
0000
0000
0000
0000
0000
0000
0000
0000
0000
ENDCHAR

STARTCHAR a
ENCODING 97
SWIDTH 361 0
DWIDTH 9 0
BBX 9 25 0 -5
BITMAP
0000
0000
0000
0000
0000
0000
0000
0000
3C00
4200
0200
0200
3E00
4200
4200
4200
4200
4200
4600
3B00
0000
0000
0000
0000
0000
ENDCHAR

STARTCHAR b
ENCODING 98
SWIDTH 361 0
DWIDTH 9 0
BBX 9 25 0 -5
BITMAP
0000
0000
0000
0000
6000
2000
2000
2000
2E00
3100
2100
2100
2100
2100
2100
2100
2100
2100
3100
6E00
0000
0000
0000
0000
0000
ENDCHAR

STARTCHAR c
ENCODING 99
SWIDTH 361 0
DWIDTH 9 0
BBX 9 25 0 -5
BITMAP
0000
0000
0000
0000
0000
0000
0000
0000
3A00
4600
4200
4000
4000
4000
4000
4000
4000
4000
4200
3C00
0000
0000
0000
0000
0000
ENDCHAR

STARTCHAR d
ENCODING 100
SWIDTH 361 0
DWIDTH 9 0
BBX 9 25 0 -5
BITMAP
0000
0000
0000
0000
0300
0100
0100
0100
1D00
2300
2100
2100
2100
2100
2100
2100
2100
2100
2300
1D80
0000
0000
0000
0000
0000
ENDCHAR

STARTCHAR e
ENCODING 101
SWIDTH 361 0
DWIDTH 9 0
BBX 9 25 0 -5
BITMAP
0000
0000
0000
0000
0000
0000
0000
0000
3C00
4200
4200
4200
4200
7E00
4000
4000
4000
4000
4200
3C00
0000
0000
0000
0000
0000
ENDCHAR

STARTCHAR f
ENCODING 102
SWIDTH 361 0
DWIDTH 9 0
BBX 9 25 0 -5
BITMAP
0000
0000
0000
0000
0700
0800
0800
0800
3E00
0800
0800
0800
0800
0800
0800
0800
0800
0800
0800
3E00
0000
0000
0000
0000
0000
ENDCHAR

STARTCHAR g
ENCODING 103
SWIDTH 361 0
DWIDTH 9 0
BBX 9 25 0 -5
BITMAP
0000
0000
0000
0000
0000
0000
0000
0000
3B00
4600
4200
4200
4200
4200
4200
4200
4200
4200
4600
3A00
0200
0200
0200
7C00
0000
ENDCHAR

STARTCHAR h
ENCODING 104
SWIDTH 361 0
DWIDTH 9 0
BBX 9 25 0 -5
BITMAP
0000
0000
0000
0000
C000
4000
4000
4000
5C00
6200
4200
4200
4200
4200
4200
4200
4200
4200
4200
4300
0000
0000
0000
0000
0000
ENDCHAR

STARTCHAR i
ENCODING 105
SWIDTH 362 0
DWIDTH 9 0
BBX 9 25 0 -5
BITMAP
0000
0000
0000
0000
0800
0800
0000
0000
3800
0800
0800
0800
0800
0800
0800
0800
0800
0800
0800
3E00
0000
0000
0000
0000
0000
ENDCHAR

STARTCHAR j
ENCODING 106
SWIDTH 361 0
DWIDTH 9 0
BBX 9 25 0 -5
BITMAP
0000
0000
0000
0000
0800
0800
0000
0000
7800
0800
0800
0800
0800
0800
0800
0800
0800
0800
0800
0800
0800
0800
0800
7000
0000
ENDCHAR

STARTCHAR k
ENCODING 107
SWIDTH 361 0
DWIDTH 9 0
BBX 9 25 0 -5
BITMAP
0000
0000
0000
0000
6000
2000
2000
2000
2180
2100
2200
2200
2C00
3400
2200
2200
2200
2100
2100
6180
0000
0000
0000
0000
0000
ENDCHAR

STARTCHAR l
ENCODING 108
SWIDTH 361 0
DWIDTH 9 0
BBX 9 25 0 -5
BITMAP
0000
0000
0000
0000
3800
0800
0800
0800
0800
0800
0800
0800
0800
0800
0800
0800
0800
0800
0800
3E00
0000
0000
0000
0000
0000
ENDCHAR

STARTCHAR m
ENCODING 109
SWIDTH 361 0
DWIDTH 9 0
BBX 9 25 0 -5
BITMAP
0000
0000
0000
0000
0000
0000
0000
0000
7700
4900
4900
4900
4900
4900
4900
4900
4900
4900
4900
4900
0000
0000
0000
0000
0000
ENDCHAR

STARTCHAR n
ENCODING 110
SWIDTH 361 0
DWIDTH 9 0
BBX 9 25 0 -5
BITMAP
0000
0000
0000
0000
0000
0000
0000
0000
DC00
6200
4200
4200
4200
4200
4200
4200
4200
4200
4200
4300
0000
0000
0000
0000
0000
ENDCHAR

STARTCHAR o
ENCODING 111
SWIDTH 361 0
DWIDTH 9 0
BBX 9 25 0 -5
BITMAP
0000
0000
0000
0000
0000
0000
0000
0000
3C00
4200
4200
4200
4200
4200
4200
4200
4200
4200
4200
3C00
0000
0000
0000
0000
0000
ENDCHAR

STARTCHAR p
ENCODING 112
SWIDTH 361 0
DWIDTH 9 0
BBX 9 25 0 -5
BITMAP
0000
0000
0000
0000
0000
0000
0000
0000
DC00
6200
4200
4200
4200
4200
4200
4200
4200
4200
6200
5C00
4000
4000
4000
E000
0000
ENDCHAR

STARTCHAR q
ENCODING 113
SWIDTH 361 0
DWIDTH 9 0
BBX 9 25 0 -5
BITMAP
0000
0000
0000
0000
0000
0000
0000
0000
3B00
4600
4200
4200
4200
4200
4200
4200
4200
4200
4600
3A00
0200
0200
0200
0700
0000
ENDCHAR

STARTCHAR r
ENCODING 114
SWIDTH 361 0
DWIDTH 9 0
BBX 9 25 0 -5
BITMAP
0000
0000
0000
0000
0000
0000
0000
0000
7700
1900
1000
1000
1000
1000
1000
1000
1000
1000
1000
7C00
0000
0000
0000
0000
0000
ENDCHAR

STARTCHAR s
ENCODING 115
SWIDTH 361 0
DWIDTH 9 0
BBX 9 25 0 -5
BITMAP
0000
0000
0000
0000
0000
0000
0000
0000
3E00
4200
4200
4000
4000
3C00
0200
0200
0200
4200
4200
7C00
0000
0000
0000
0000
0000
ENDCHAR

STARTCHAR t
ENCODING 116
SWIDTH 361 0
DWIDTH 9 0
BBX 9 25 0 -5
BITMAP
0000
0000
0000
0000
2000
2000
2000
2000
FC00
2000
2000
2000
2000
2000
2000
2000
2000
2000
2100
1E00
0000
0000
0000
0000
0000
ENDCHAR

STARTCHAR u
ENCODING 117
SWIDTH 361 0
DWIDTH 9 0
BBX 9 25 0 -5
BITMAP
0000
0000
0000
0000
0000
0000
0000
0000
C600
4200
4200
4200
4200
4200
4200
4200
4200
4200
4600
3B00
0000
0000
0000
0000
0000
ENDCHAR

STARTCHAR v
ENCODING 118
SWIDTH 361 0
DWIDTH 9 0
BBX 9 25 0 -5
BITMAP
0000
0000
0000
0000
0000
0000
0000
0000
C300
4200
4200
4200
2400
2400
2400
2400
2400
1800
1800
1800
0000
0000
0000
0000
0000
ENDCHAR

STARTCHAR w
ENCODING 119
SWIDTH 361 0
DWIDTH 9 0
BBX 9 25 0 -5
BITMAP
0000
0000
0000
0000
0000
0000
0000
0000
6300
4100
4900
4900
4900
4900
4900
3E00
2200
2200
2200
2200
0000
0000
0000
0000
0000
ENDCHAR

STARTCHAR x
ENCODING 120
SWIDTH 361 0
DWIDTH 9 0
BBX 9 25 0 -5
BITMAP
0000
0000
0000
0000
0000
0000
0000
0000
6300
2200
2200
1400
1400
0800
0800
1400
1400
2200
2200
6300
0000
0000
0000
0000
0000
ENDCHAR

STARTCHAR y
ENCODING 121
SWIDTH 361 0
DWIDTH 9 0
BBX 9 25 0 -5
BITMAP
0000
0000
0000
0000
0000
0000
0000
0000
6180
2100
2100
2100
1200
1200
1200
1200
1400
1400
0C00
0800
0800
0800
0800
1C00
0000
ENDCHAR

STARTCHAR z
ENCODING 122
SWIDTH 361 0
DWIDTH 9 0
BBX 9 25 0 -5
BITMAP
0000
0000
0000
0000
0000
0000
0000
0000
7F00
4100
4200
0600
0400
0C00
0800
1800
1000
3100
2100
7F00
0000
0000
0000
0000
0000
ENDCHAR

STARTCHAR braceleft
ENCODING 123
SWIDTH 361 0
DWIDTH 9 0
BBX 9 25 0 -5
BITMAP
0000
0000
0000
0000
0600
0800
0800
0800
0800
0800
0800
0800
3000
0800
0800
0800
0800
0800
0800
0800
0600
0000
0000
0000
0000
ENDCHAR

STARTCHAR bar
ENCODING 124
SWIDTH 361 0
DWIDTH 9 0
BBX 9 25 0 -5
BITMAP
0000
0000
0000
0000
0000
0800
0800
0800
0800
0800
0800
0800
0800
0800
0800
0800
0800
0800
0800
0800
0800
0800
0800
0800
0000
ENDCHAR

STARTCHAR braceright
ENCODING 125
SWIDTH 361 0
DWIDTH 9 0
BBX 9 25 0 -5
BITMAP
0000
0000
0000
0000
3000
0800
0800
0800
0800
0800
0800
0800
0600
0800
0800
0800
0800
0800
0800
0800
3000
0000
0000
0000
0000
ENDCHAR

STARTCHAR asciitilde
ENCODING 126
SWIDTH 361 0
DWIDTH 9 0
BBX 9 25 0 -5
BITMAP
0000
0000
0000
0000
0000
0000
0000
0000
0000
0000
0000
3100
4900
4600
0000
0000
0000
0000
0000
0000
0000
0000
0000
0000
0000
ENDCHAR

STARTCHAR space
ENCODING 160
SWIDTH 361 0
DWIDTH 9 0
BBX 9 25 0 -5
BITMAP
0000
0000
0000
0000
0000
0000
0000
0000
0000
0000
0000
0000
0000
0000
0000
0000
0000
0000
0000
0000
0000
0000
0000
0000
0000
ENDCHAR

STARTCHAR afii10023
ENCODING 161
SWIDTH 361 0
DWIDTH 9 0
BBX 9 25 0 -5
BITMAP
0000
2200
2200
0000
0000
7F00
2100
2100
2000
2000
2000
2200
3E00
2200
2000
2000
2000
2100
2100
7F00
0000
0000
0000
0000
0000
ENDCHAR

STARTCHAR afii10051
ENCODING 162
SWIDTH 361 0
DWIDTH 9 0
BBX 9 25 0 -5
BITMAP
0000
0000
0000
0000
0000
FE00
9200
9200
1000
1000
1000
1600
1900
1100
1100
1100
1100
1100
1100
3600
0000
0000
0000
0000
0000
ENDCHAR

STARTCHAR afii10052
ENCODING 163
SWIDTH 361 0
DWIDTH 9 0
BBX 9 25 0 -5
BITMAP
0600
0800
1000
0000
0000
7F00
2100
2100
2000
2000
2000
2000
2000
2000
2000
2000
2000
2000
2000
7000
0000
0000
0000
0000
0000
ENDCHAR

STARTCHAR afii10053
ENCODING 164
SWIDTH 361 0
DWIDTH 9 0
BBX 9 25 0 -5
BITMAP
0000
0000
0000
0000
0000
1D00
2300
2100
2000
2000
2000
2000
3E00
2000
2000
2000
2000
2100
2100
1E00
0000
0000
0000
0000
0000
ENDCHAR

STARTCHAR afii10054
ENCODING 165
SWIDTH 361 0
DWIDTH 9 0
BBX 9 25 0 -5
BITMAP
0000
0000
0000
0000
0000
3E00
4200
4200
4000
4000
4000
4000
3C00
0200
0200
0200
0200
4200
4200
7C00
0000
0000
0000
0000
0000
ENDCHAR

STARTCHAR afii10055
ENCODING 166
SWIDTH 361 0
DWIDTH 9 0
BBX 9 25 0 -5
BITMAP
0000
0000
0000
0000
0000
3E00
0800
0800
0800
0800
0800
0800
0800
0800
0800
0800
0800
0800
0800
3E00
0000
0000
0000
0000
0000
ENDCHAR

STARTCHAR afii10056
ENCODING 167
SWIDTH 361 0
DWIDTH 9 0
BBX 9 25 0 -5
BITMAP
0000
2200
2200
0000
0000
3E00
0800
0800
0800
0800
0800
0800
0800
0800
0800
0800
0800
0800
0800
3E00
0000
0000
0000
0000
0000
ENDCHAR

STARTCHAR afii10057
ENCODING 168
SWIDTH 361 0
DWIDTH 9 0
BBX 9 25 0 -5
BITMAP
0000
0000
0000
0000
0000
0F00
0200
0200
0200
0200
0200
0200
0200
0200
0200
4200
4200
4200
4200
3C00
0000
0000
0000
0000
0000
ENDCHAR

STARTCHAR afii10058
ENCODING 169
SWIDTH 361 0
DWIDTH 9 0
BBX 9 25 0 -5
BITMAP
0000
0000
0000
0000
0000
7E00
2400
2400
2400
2400
2400
2400
2700
2480
2480
2480
2480
2480
2480
C700
0000
0000
0000
0000
0000
ENDCHAR

STARTCHAR afii10059
ENCODING 170
SWIDTH 361 0
DWIDTH 9 0
BBX 9 25 0 -5
BITMAP
0000
0000
0000
0000
0000
EE00
4400
4400
4400
4400
4400
4400
7F00
4480
4480
4480
4480
4480
4480
EF00
0000
0000
0000
0000
0000
ENDCHAR

STARTCHAR afii10060
ENCODING 171
SWIDTH 361 0
DWIDTH 9 0
BBX 9 25 0 -5
BITMAP
0000
0000
0000
0000
0000
FE00
9200
9200
1000
1000
1000
1600
1900
1100
1100
1100
1100
1100
1100
3B80
0000
0000
0000
0000
0000
ENDCHAR

STARTCHAR afii10061
ENCODING 172
SWIDTH 361 0
DWIDTH 9 0
BBX 9 25 0 -5
BITMAP
0000
0600
0800
1000
0000
7180
2280
2480
2400
2800
2800
3000
2800
2800
2400
2400
2400
2200
2200
7380
0000
0000
0000
0000
0000
ENDCHAR

STARTCHAR hyphen
ENCODING 173
SWIDTH 361 0
DWIDTH 9 0
BBX 9 25 0 -5
BITMAP
0000
0000
0000
0000
0000
0000
0000
0000
0000
0000
0000
0000
0000
7F00
0000
0000
0000
0000
0000
0000
0000
0000
0000
0000
0000
ENDCHAR

STARTCHAR afii10062
ENCODING 174
SWIDTH 361 0
DWIDTH 9 0
BBX 9 25 0 -5
BITMAP
0000
2200
2200
1C00
0000
E380
4100
4100
4100
2200
2200
2200
1400
1400
1400
0800
0800
1000
9000
6000
0000
0000
0000
0000
0000
ENDCHAR

STARTCHAR afii10145
ENCODING 175
SWIDTH 361 0
DWIDTH 9 0
BBX 9 25 0 -5
BITMAP
0000
0000
0000
0000
0000
E700
4200
4200
4200
4200
4200
4200
4200
4200
4200
4200
4200
4200
4200
FF00
0800
0800
0000
0000
0000
ENDCHAR

STARTCHAR afii10017
ENCODING 176
SWIDTH 361 0
DWIDTH 9 0
BBX 9 25 0 -5
BITMAP
0000
0000
0000
0000
0000
1800
1800
1800
2400
2400
2400
4200
4200
4200
7E00
4200
4200
4200
4200
C300
0000
0000
0000
0000
0000
ENDCHAR

STARTCHAR afii10018
ENCODING 177
SWIDTH 361 0
DWIDTH 9 0
BBX 9 25 0 -5
BITMAP
0000
0000
0000
0000
0000
7F00
2100
2100
2000
2000
2000
2000
3E00
2100
2100
2100
2100
2100
2100
7E00
0000
0000
0000
0000
0000
ENDCHAR

STARTCHAR afii10019
ENCODING 178
SWIDTH 361 0
DWIDTH 9 0
BBX 9 25 0 -5
BITMAP
0000
0000
0000
0000
0000
7E00
2100
2100
2100
2100
2100
2100
3E00
2100
2100
2100
2100
2100
2100
7E00
0000
0000
0000
0000
0000
ENDCHAR

STARTCHAR afii10020
ENCODING 179
SWIDTH 361 0
DWIDTH 9 0
BBX 9 25 0 -5
BITMAP
0000
0000
0000
0000
0000
7F00
2100
2100
2000
2000
2000
2000
2000
2000
2000
2000
2000
2000
2000
7000
0000
0000
0000
0000
0000
ENDCHAR

STARTCHAR afii10021
ENCODING 180
SWIDTH 361 0
DWIDTH 9 0
BBX 9 25 0 -5
BITMAP
0000
0000
0000
0000
0000
7F80
1100
1100
1100
1100
1100
1100
1100
1100
1100
1100
2100
2100
4100
FF80
8080
8080
8080
8080
0000
ENDCHAR

STARTCHAR afii10022
ENCODING 181
SWIDTH 361 0
DWIDTH 9 0
BBX 9 25 0 -5
BITMAP
0000
0000
0000
0000
0000
7F00
2100
2100
2000
2000
2000
2200
3E00
2200
2000
2000
2000
2100
2100
7F00
0000
0000
0000
0000
0000
ENDCHAR

STARTCHAR afii10024
ENCODING 182
SWIDTH 361 0
DWIDTH 9 0
BBX 9 25 0 -5
BITMAP
0000
0000
0000
0000
0000
9C80
4900
2A00
2A00
2A00
2A00
1C00
2A00
2A00
2A00
4900
4900
4900
4900
DD80
0000
0000
0000
0000
0000
ENDCHAR

STARTCHAR afii10025
ENCODING 183
SWIDTH 361 0
DWIDTH 9 0
BBX 9 25 0 -5
BITMAP
0000
0000
0000
0000
0000
2E00
3100
2100
0100
0100
0100
0200
1C00
0200
0100
0100
0100
2100
2100
1E00
0000
0000
0000
0000
0000
ENDCHAR

STARTCHAR afii10026
ENCODING 184
SWIDTH 361 0
DWIDTH 9 0
BBX 9 25 0 -5
BITMAP
0000
0000
0000
0000
0000
E300
4200
4600
4600
4A00
4A00
4A00
4A00
5200
5200
5200
6200
6200
4200
C700
0000
0000
0000
0000
0000
ENDCHAR

STARTCHAR afii10027
ENCODING 185
SWIDTH 361 0
DWIDTH 9 0
BBX 9 25 0 -5
BITMAP
2200
2200
1C00
0000
0000
E300
4200
4600
4600
4A00
4A00
4A00
4A00
5200
5200
5200
6200
6200
4200
C700
0000
0000
0000
0000
0000
ENDCHAR

STARTCHAR afii10028
ENCODING 186
SWIDTH 361 0
DWIDTH 9 0
BBX 9 25 0 -5
BITMAP
0000
0000
0000
0000
0000
7180
2280
2480
2400
2800
2800
3000
2800
2800
2400
2400
2400
2200
2200
7380
0000
0000
0000
0000
0000
ENDCHAR

STARTCHAR afii10029
ENCODING 187
SWIDTH 361 0
DWIDTH 9 0
BBX 9 25 0 -5
BITMAP
0000
0000
0000
0000
0000
3F80
1100
1100
1100
1100
1100
1100
1100
1100
1100
1100
1100
9100
9100
6380
0000
0000
0000
0000
0000
ENDCHAR

STARTCHAR afii10030
ENCODING 188
SWIDTH 361 0
DWIDTH 9 0
BBX 9 25 0 -5
BITMAP
0000
0000
0000
0000
0000
C300
4200
4200
6600
6600
5A00
5A00
5A00
4200
4200
4200
4200
4200
4200
E700
0000
0000
0000
0000
0000
ENDCHAR

STARTCHAR afii10031
ENCODING 189
SWIDTH 361 0
DWIDTH 9 0
BBX 9 25 0 -5
BITMAP
0000
0000
0000
0000
0000
E700
4200
4200
4200
4200
4200
4200
7E00
4200
4200
4200
4200
4200
4200
E700
0000
0000
0000
0000
0000
ENDCHAR

STARTCHAR afii10032
ENCODING 190
SWIDTH 361 0
DWIDTH 9 0
BBX 9 25 0 -5
BITMAP
0000
0000
0000
0000
0000
3C00
4200
4200
4200
4200
4200
4200
4200
4200
4200
4200
4200
4200
4200
3C00
0000
0000
0000
0000
0000
ENDCHAR

STARTCHAR afii10033
ENCODING 191
SWIDTH 361 0
DWIDTH 9 0
BBX 9 25 0 -5
BITMAP
0000
0000
0000
0000
0000
7F80
2100
2100
2100
2100
2100
2100
2100
2100
2100
2100
2100
2100
2100
7380
0000
0000
0000
0000
0000
ENDCHAR

STARTCHAR afii10034
ENCODING 192
SWIDTH 361 0
DWIDTH 9 0
BBX 9 25 0 -5
BITMAP
0000
0000
0000
0000
0000
7E00
2100
2100
2100
2100
2100
2100
3E00
2000
2000
2000
2000
2000
2000
7800
0000
0000
0000
0000
0000
ENDCHAR

STARTCHAR afii10035
ENCODING 193
SWIDTH 361 0
DWIDTH 9 0
BBX 9 25 0 -5
BITMAP
0000
0000
0000
0000
0000
1D00
2300
2100
2000
2000
2000
2000
2000
2000
2000
2000
2000
2100
2100
1E00
0000
0000
0000
0000
0000
ENDCHAR

STARTCHAR afii10036
ENCODING 194
SWIDTH 361 0
DWIDTH 9 0
BBX 9 25 0 -5
BITMAP
0000
0000
0000
0000
0000
FF80
8880
8880
0800
0800
0800
0800
0800
0800
0800
0800
0800
0800
0800
3E00
0000
0000
0000
0000
0000
ENDCHAR

STARTCHAR afii10037
ENCODING 195
SWIDTH 361 0
DWIDTH 9 0
BBX 9 25 0 -5
BITMAP
0000
0000
0000
0000
0000
E380
4100
4100
4100
2200
2200
2200
1400
1400
1400
0800
0800
1000
9000
6000
0000
0000
0000
0000
0000
ENDCHAR

STARTCHAR afii10038
ENCODING 196
SWIDTH 361 0
DWIDTH 9 0
BBX 9 25 0 -5
BITMAP
0000
0000
0000
0000
0000
3E00
0800
1C00
2A00
4900
4900
4900
4900
4900
4900
4900
2A00
1C00
0800
3E00
0000
0000
0000
0000
0000
ENDCHAR

STARTCHAR afii10039
ENCODING 197
SWIDTH 361 0
DWIDTH 9 0
BBX 9 25 0 -5
BITMAP
0000
0000
0000
0000
0000
C300
4200
4200
2400
2400
2400
1800
1800
2400
2400
2400
4200
4200
4200
C300
0000
0000
0000
0000
0000
ENDCHAR

STARTCHAR afii10040
ENCODING 198
SWIDTH 361 0
DWIDTH 9 0
BBX 9 25 0 -5
BITMAP
0000
0000
0000
0000
0000
7380
2100
2100
2100
2100
2100
2100
2100
2100
2100
2100
2100
2100
2100
7F80
0080
0080
0000
0000
0000
ENDCHAR

STARTCHAR afii10041
ENCODING 199
SWIDTH 361 0
DWIDTH 9 0
BBX 9 25 0 -5
BITMAP
0000
0000
0000
0000
0000
E380
4100
4100
4100
4100
4100
4100
4300
2500
1900
0100
0100
0100
0100
0780
0000
0000
0000
0000
0000
ENDCHAR

STARTCHAR afii10042
ENCODING 200
SWIDTH 361 0
DWIDTH 9 0
BBX 9 25 0 -5
BITMAP
0000
0000
0000
0000
0000
DD80
4900
4900
4900
4900
4900
4900
4900
4900
4900
4900
4900
4900
4900
FF80
0000
0000
0000
0000
0000
ENDCHAR

STARTCHAR afii10043
ENCODING 201
SWIDTH 361 0
DWIDTH 9 0
BBX 9 25 0 -5
BITMAP
0000
0000
0000
0000
0000
EB80
4900
4900
4900
4900
4900
4900
4900
4900
4900
4900
4900
4900
4900
FF80
0080
0080
0000
0000
0000
ENDCHAR

STARTCHAR afii10044
ENCODING 202
SWIDTH 361 0
DWIDTH 9 0
BBX 9 25 0 -5
BITMAP
0000
0000
0000
0000
0000
F800
9000
9000
1000
1000
1000
1000
1F00
1080
1080
1080
1080
1080
1080
3F00
0000
0000
0000
0000
0000
ENDCHAR

STARTCHAR afii10045
ENCODING 203
SWIDTH 361 0
DWIDTH 9 0
BBX 9 25 0 -5
BITMAP
0000
0000
0000
0000
0000
E380
4100
4100
4100
4100
4100
4100
7900
4500
4500
4500
4500
4500
4500
FB80
0000
0000
0000
0000
0000
ENDCHAR

STARTCHAR afii10046
ENCODING 204
SWIDTH 361 0
DWIDTH 9 0
BBX 9 25 0 -5
BITMAP
0000
0000
0000
0000
0000
7000
2000
2000
2000
2000
2000
2000
3E00
2100
2100
2100
2100
2100
2100
7E00
0000
0000
0000
0000
0000
ENDCHAR

STARTCHAR afii10047
ENCODING 205
SWIDTH 361 0
DWIDTH 9 0
BBX 9 25 0 -5
BITMAP
0000
0000
0000
0000
0000
5C00
6200
4200
0200
0200
0200
0200
3E00
0200
0200
0200
0200
4200
4200
3C00
0000
0000
0000
0000
0000
ENDCHAR

STARTCHAR afii10048
ENCODING 206
SWIDTH 361 0
DWIDTH 9 0
BBX 9 25 0 -5
BITMAP
0000
0000
0000
0000
0000
E600
4900
5080
5080
5080
5080
5080
7080
5080
5080
5080
5080
5080
4900
E600
0000
0000
0000
0000
0000
ENDCHAR

STARTCHAR afii10049
ENCODING 207
SWIDTH 361 0
DWIDTH 9 0
BBX 9 25 0 -5
BITMAP
0000
0000
0000
0000
0000
1F80
2100
2100
2100
2100
2100
2100
1F00
1100
1100
1100
2100
2100
2100
6380
0000
0000
0000
0000
0000
ENDCHAR

STARTCHAR afii10065
ENCODING 208
SWIDTH 361 0
DWIDTH 9 0
BBX 9 25 0 -5
BITMAP
0000
0000
0000
0000
0000
0000
0000
0000
3C00
4200
0200
0200
3E00
4200
4200
4200
4200
4200
4600
3B00
0000
0000
0000
0000
0000
ENDCHAR

STARTCHAR afii10066
ENCODING 209
SWIDTH 361 0
DWIDTH 9 0
BBX 9 25 0 -5
BITMAP
0000
0000
0000
0000
0000
0200
3C00
4000
7C00
4200
4200
4200
4200
4200
4200
4200
4200
4200
4200
3C00
0000
0000
0000
0000
0000
ENDCHAR

STARTCHAR afii10067
ENCODING 210
SWIDTH 361 0
DWIDTH 9 0
BBX 9 25 0 -5
BITMAP
0000
0000
0000
0000
0000
0000
0000
0000
7C00
2200
2200
2200
2200
3C00
2200
2200
2200
2200
2200
7C00
0000
0000
0000
0000
0000
ENDCHAR

STARTCHAR afii10068
ENCODING 211
SWIDTH 361 0
DWIDTH 9 0
BBX 9 25 0 -5
BITMAP
0000
0000
0000
0000
0000
0000
0000
0000
7F80
1080
1080
1000
1000
1000
1000
1000
1000
1000
1000
7C00
0000
0000
0000
0000
0000
ENDCHAR

STARTCHAR afii10069
ENCODING 212
SWIDTH 361 0
DWIDTH 9 0
BBX 9 25 0 -5
BITMAP
0000
0000
0000
0000
0000
0000
0000
0000
3F80
1100
1100
1100
1100
1100
1100
1100
1100
2100
2100
7F80
4080
4080
4080
0000
0000
ENDCHAR

STARTCHAR afii10070
ENCODING 213
SWIDTH 361 0
DWIDTH 9 0
BBX 9 25 0 -5
BITMAP
0000
0000
0000
0000
0000
0000
0000
0000
3C00
4200
4200
4200
4200
7E00
4000
4000
4000
4000
4200
3C00
0000
0000
0000
0000
0000
ENDCHAR

STARTCHAR afii10072
ENCODING 214
SWIDTH 361 0
DWIDTH 9 0
BBX 9 25 0 -5
BITMAP
0000
0000
0000
0000
0000
0000
0000
0000
C980
AA80
AA80
2A00
2A00
1C00
2A00
2A00
4900
4900
4900
DD80
0000
0000
0000
0000
0000
ENDCHAR

STARTCHAR afii10073
ENCODING 215
SWIDTH 361 0
DWIDTH 9 0
BBX 9 25 0 -5
BITMAP
0000
0000
0000
0000
0000
0000
0000
0000
5C00
6200
4200
0200
0400
1800
0400
0200
0200
0200
4200
3C00
0000
0000
0000
0000
0000
ENDCHAR

STARTCHAR afii10074
ENCODING 216
SWIDTH 361 0
DWIDTH 9 0
BBX 9 25 0 -5
BITMAP
0000
0000
0000
0000
0000
0000
0000
0000
C300
4200
4600
4600
4A00
4A00
5200
5200
6200
6200
4200
C300
0000
0000
0000
0000
0000
ENDCHAR

STARTCHAR afii10075
ENCODING 217
SWIDTH 361 0
DWIDTH 9 0
BBX 9 25 0 -5
BITMAP
0000
0000
0000
2200
2200
1C00
0000
0000
C300
4200
4600
4600
4A00
4A00
5200
5200
6200
6200
4200
C300
0000
0000
0000
0000
0000
ENDCHAR

STARTCHAR afii10076
ENCODING 218
SWIDTH 361 0
DWIDTH 9 0
BBX 9 25 0 -5
BITMAP
0000
0000
0000
0000
0000
0000
0000
0000
6300
2500
2400
2400
2800
2800
3800
2400
2400
2200
2200
6300
0000
0000
0000
0000
0000
ENDCHAR

STARTCHAR afii10077
ENCODING 219
SWIDTH 361 0
DWIDTH 9 0
BBX 9 25 0 -5
BITMAP
0000
0000
0000
0000
0000
0000
0000
0000
3F80
1100
1100
1100
1100
1100
1100
1100
1100
1100
9100
6180
0000
0000
0000
0000
0000
ENDCHAR

STARTCHAR afii10078
ENCODING 220
SWIDTH 361 0
DWIDTH 9 0
BBX 9 25 0 -5
BITMAP
0000
0000
0000
0000
0000
0000
0000
0000
C180
4100
6300
6300
6300
5500
5500
5500
4900
4900
4900
EB80
0000
0000
0000
0000
0000
ENDCHAR

STARTCHAR afii10079
ENCODING 221
SWIDTH 361 0
DWIDTH 9 0
BBX 9 25 0 -5
BITMAP
0000
0000
0000
0000
0000
0000
0000
0000
6180
2100
2100
2100
2100
3F00
2100
2100
2100
2100
2100
6180
0000
0000
0000
0000
0000
ENDCHAR

STARTCHAR afii10080
ENCODING 222
SWIDTH 361 0
DWIDTH 9 0
BBX 9 25 0 -5
BITMAP
0000
0000
0000
0000
0000
0000
0000
0000
3C00
4200
4200
4200
4200
4200
4200
4200
4200
4200
4200
3C00
0000
0000
0000
0000
0000
ENDCHAR

STARTCHAR afii10081
ENCODING 223
SWIDTH 361 0
DWIDTH 9 0
BBX 9 25 0 -5
BITMAP
0000
0000
0000
0000
0000
0000
0000
0000
7F80
2100
2100
2100
2100
2100
2100
2100
2100
2100
2100
6180
0000
0000
0000
0000
0000
ENDCHAR

STARTCHAR afii10082
ENCODING 224
SWIDTH 361 0
DWIDTH 9 0
BBX 9 25 0 -5
BITMAP
0000
0000
0000
0000
0000
0000
0000
0000
6E00
3100
2100
2100
2100
2100
2100
2100
2100
2100
3100
2E00
2000
2000
2000
7000
0000
ENDCHAR

STARTCHAR afii10083
ENCODING 225
SWIDTH 361 0
DWIDTH 9 0
BBX 9 25 0 -5
BITMAP
0000
0000
0000
0000
0000
0000
0000
0000
3A00
4600
4200
4000
4000
4000
4000
4000
4000
4000
4200
3C00
0000
0000
0000
0000
0000
ENDCHAR

STARTCHAR afii10084
ENCODING 226
SWIDTH 361 0
DWIDTH 9 0
BBX 9 25 0 -5
BITMAP
0000
0000
0000
0000
0000
0000
0000
0000
7F00
4900
4900
0800
0800
0800
0800
0800
0800
0800
0800
1C00
0000
0000
0000
0000
0000
ENDCHAR

STARTCHAR afii10085
ENCODING 227
SWIDTH 361 0
DWIDTH 9 0
BBX 9 25 0 -5
BITMAP
0000
0000
0000
0000
0000
0000
0000
0000
E180
4080
4080
2100
2100
2100
1200
1200
1200
0C00
0C00
0800
0800
0800
1000
1000
6000
ENDCHAR

STARTCHAR afii10086
ENCODING 228
SWIDTH 361 0
DWIDTH 9 0
BBX 9 25 0 -5
BITMAP
0000
0000
0000
0000
0000
1C00
0800
0800
3E00
4900
4900
4900
4900
4900
4900
4900
4900
4900
4900
3E00
0800
0800
0800
1C00
0000
ENDCHAR

STARTCHAR afii10087
ENCODING 229
SWIDTH 361 0
DWIDTH 9 0
BBX 9 25 0 -5
BITMAP
0000
0000
0000
0000
0000
0000
0000
0000
4100
4100
2200
2200
1400
1400
0800
1400
2200
2200
4100
4100
0000
0000
0000
0000
0000
ENDCHAR

STARTCHAR afii10088
ENCODING 230
SWIDTH 361 0
DWIDTH 9 0
BBX 9 25 0 -5
BITMAP
0000
0000
0000
0000
0000
0000
0000
0000
C300
4200
4200
4200
4200
4200
4200
4200
4200
4200
4200
FF00
0100
0100
0000
0000
0000
ENDCHAR

STARTCHAR afii10089
ENCODING 231
SWIDTH 361 0
DWIDTH 9 0
BBX 9 25 0 -5
BITMAP
0000
0000
0000
0000
0000
0000
0000
0000
6180
2100
2100
2100
2100
2100
2300
1D00
0100
0100
0100
0180
0000
0000
0000
0000
0000
ENDCHAR

STARTCHAR afii10090
ENCODING 232
SWIDTH 361 0
DWIDTH 9 0
BBX 9 25 0 -5
BITMAP
0000
0000
0000
0000
0000
0000
0000
0000
C980
4900
4900
4900
4900
4900
4900
4900
4900
4900
4900
FF80
0000
0000
0000
0000
0000
ENDCHAR

STARTCHAR afii10091
ENCODING 233
SWIDTH 361 0
DWIDTH 9 0
BBX 9 25 0 -5
BITMAP
0000
0000
0000
0000
0000
0000
0000
0000
C980
4900
4900
4900
4900
4900
4900
4900
4900
4900
4900
FF80
0080
0080
0000
0000
0000
ENDCHAR

STARTCHAR afii10092
ENCODING 234
SWIDTH 361 0
DWIDTH 9 0
BBX 9 25 0 -5
BITMAP
0000
0000
0000
0000
0000
0000
0000
0000
F800
9000
9000
1000
1000
1000
1E00
1100
1100
1100
1100
3E00
0000
0000
0000
0000
0000
ENDCHAR

STARTCHAR afii10093
ENCODING 235
SWIDTH 361 0
DWIDTH 9 0
BBX 9 25 0 -5
BITMAP
0000
0000
0000
0000
0000
0000
0000
0000
C380
4100
4100
4100
4100
4100
7900
4500
4500
4500
4500
FB80
0000
0000
0000
0000
0000
ENDCHAR

STARTCHAR afii10094
ENCODING 236
SWIDTH 361 0
DWIDTH 9 0
BBX 9 25 0 -5
BITMAP
0000
0000
0000
0000
0000
0000
0000
0000
6000
2000
2000
2000
2000
2000
3E00
2100
2100
2100
2100
7E00
0000
0000
0000
0000
0000
ENDCHAR

STARTCHAR afii10095
ENCODING 237
SWIDTH 361 0
DWIDTH 9 0
BBX 9 25 0 -5
BITMAP
0000
0000
0000
0000
0000
0000
0000
0000
5C00
6200
4200
0200
0200
1E00
0200
0200
0200
0200
4200
3C00
0000
0000
0000
0000
0000
ENDCHAR

STARTCHAR afii10096
ENCODING 238
SWIDTH 361 0
DWIDTH 9 0
BBX 9 25 0 -5
BITMAP
0000
0000
0000
0000
0000
0000
0000
0000
E700
4880
4880
4880
4880
7880
4880
4880
4880
4880
4880
E700
0000
0000
0000
0000
0000
ENDCHAR

STARTCHAR afii10097
ENCODING 239
SWIDTH 361 0
DWIDTH 9 0
BBX 9 25 0 -5
BITMAP
0000
0000
0000
0000
0000
0000
0000
0000
1F00
2200
2200
2200
2200
2200
2200
1E00
1200
2200
2200
6300
0000
0000
0000
0000
0000
ENDCHAR

STARTCHAR afii61352
ENCODING 240
SWIDTH 361 0
DWIDTH 9 0
BBX 9 25 0 -5
BITMAP
0000
0000
0000
0000
0000
CC00
4800
6900
6A80
6A80
6A80
6A80
6900
5800
5800
5B80
5800
5800
4800
EC00
0000
0000
0000
0000
0000
ENDCHAR

STARTCHAR afii10071
ENCODING 241
SWIDTH 361 0
DWIDTH 9 0
BBX 9 25 0 -5
BITMAP
0000
0000
0000
0000
2200
2200
0000
0000
3C00
4200
4200
4200
4200
7E00
4000
4000
4000
4000
4200
3C00
0000
0000
0000
0000
0000
ENDCHAR

STARTCHAR afii10099
ENCODING 242
SWIDTH 361 0
DWIDTH 9 0
BBX 9 25 0 -5
BITMAP
0000
0000
0000
0000
6000
2000
7C00
2000
2E00
3100
3100
2100
2100
2100
2100
2100
2100
2100
2100
6100
0100
0100
0100
0200
1C00
ENDCHAR

STARTCHAR afii10100
ENCODING 243
SWIDTH 361 0
DWIDTH 9 0
BBX 9 25 0 -5
BITMAP
0000
0000
0000
0600
0800
1000
0000
0000
7F80
1080
1080
1000
1000
1000
1000
1000
1000
1000
1000
7C00
0000
0000
0000
0000
0000
ENDCHAR

STARTCHAR afii10101
ENCODING 244
SWIDTH 361 0
DWIDTH 9 0
BBX 9 25 0 -5
BITMAP
0000
0000
0000
0000
0000
0000
0000
0000
3A00
4600
4200
4000
4000
7800
4000
4000
4000
4000
4200
3C00
0000
0000
0000
0000
0000
ENDCHAR

STARTCHAR afii10102
ENCODING 245
SWIDTH 361 0
DWIDTH 9 0
BBX 9 25 0 -5
BITMAP
0000
0000
0000
0000
0000
0000
0000
0000
3E00
4200
4200
4000
4000
3C00
0200
0200
0200
4200
4200
7C00
0000
0000
0000
0000
0000
ENDCHAR

STARTCHAR afii10103
ENCODING 246
SWIDTH 362 0
DWIDTH 9 0
BBX 9 25 0 -5
BITMAP
0000
0000
0000
0000
0800
0800
0000
0000
3800
0800
0800
0800
0800
0800
0800
0800
0800
0800
0800
3E00
0000
0000
0000
0000
0000
ENDCHAR

STARTCHAR afii10104
ENCODING 247
SWIDTH 361 0
DWIDTH 9 0
BBX 9 25 0 -5
BITMAP
0000
0000
0000
0000
2200
2200
0000
0000
3800
0800
0800
0800
0800
0800
0800
0800
0800
0800
0800
3E00
0000
0000
0000
0000
0000
ENDCHAR

STARTCHAR afii10105
ENCODING 248
SWIDTH 361 0
DWIDTH 9 0
BBX 9 25 0 -5
BITMAP
0000
0000
0000
0000
0800
0800
0000
0000
7800
0800
0800
0800
0800
0800
0800
0800
0800
0800
0800
0800
0800
0800
0800
7000
0000
ENDCHAR

STARTCHAR afii10106
ENCODING 249
SWIDTH 361 0
DWIDTH 9 0
BBX 9 25 0 -5
BITMAP
0000
0000
0000
0000
0000
0000
0000
0000
0000
7E00
2400
2400
2400
2400
2700
2480
2480
2480
2480
CF00
0000
0000
0000
0000
0000
ENDCHAR

STARTCHAR afii10107
ENCODING 250
SWIDTH 361 0
DWIDTH 9 0
BBX 9 25 0 -5
BITMAP
0000
0000
0000
0000
0000
0000
0000
0000
0000
E600
4400
4400
4400
4400
7F00
4480
4480
4480
4480
E700
0000
0000
0000
0000
0000
ENDCHAR

STARTCHAR afii10108
ENCODING 251
SWIDTH 361 0
DWIDTH 9 0
BBX 9 25 0 -5
BITMAP
0000
0000
0000
0000
0000
6000
2000
7800
2000
2E00
3100
2100
2100
2100
2100
2100
2100
2100
2100
6180
0000
0000
0000
0000
0000
ENDCHAR

STARTCHAR afii10109
ENCODING 252
SWIDTH 361 0
DWIDTH 9 0
BBX 9 25 0 -5
BITMAP
0000
0000
0000
0600
0800
1000
0000
0000
6300
2500
2400
2400
2800
2800
3800
2400
2400
2200
2200
6300
0000
0000
0000
0000
0000
ENDCHAR

STARTCHAR section
ENCODING 253
SWIDTH 361 0
DWIDTH 9 0
BBX 9 25 0 -5
BITMAP
0000
0000
0000
0000
0000
1E00
2200
2000
2000
3000
2800
4400
4200
4200
4200
2200
1400
0C00
0400
0400
4400
7800
0000
0000
0000
ENDCHAR

STARTCHAR afii10110
ENCODING 254
SWIDTH 361 0
DWIDTH 9 0
BBX 9 25 0 -5
BITMAP
0000
0000
0000
1100
1100
0E00
0000
0000
E180
4080
4080
2100
2100
2100
1200
1200
1200
0C00
0C00
0800
0800
0800
1000
1000
6000
ENDCHAR

STARTCHAR afii10193
ENCODING 255
SWIDTH 361 0
DWIDTH 9 0
BBX 9 25 0 -5
BITMAP
0000
0000
0000
0000
0000
0000
0000
0000
6180
2100
2100
2100
2100
2100
2100
2100
2100
2100
2100
7F80
0800
0800
0000
0000
0000
ENDCHAR
ENDFONT
